<svg width="460" height="460" viewBox="0 0 460 460" fill="none" xmlns="http://www.w3.org/2000/svg">
<path d="M20 -11V470.009" stroke="black" stroke-width="1.5" stroke-linecap="round" stroke-dasharray="8 8"/>
<path d="M73 -11V470.009" stroke="black" stroke-width="1.5" stroke-linecap="round" stroke-dasharray="8 8"/>
<path d="M440 -11V470.009" stroke="black" stroke-width="1.5" stroke-linecap="round" stroke-dasharray="8 8"/>
<path d="M-14 18H484.5" stroke="black" stroke-width="1.5" stroke-linecap="round" stroke-dasharray="8 8"/>
<path d="M-14 69H484.5" stroke="black" stroke-width="1.5" stroke-linecap="round" stroke-dasharray="8 8"/>
<path d="M-14 128H484.5" stroke="black" stroke-width="1.5" stroke-linecap="round" stroke-dasharray="8 8"/>
<path d="M-14 158H484.5" stroke="black" stroke-width="1.5" stroke-linecap="round" stroke-dasharray="8 8"/>
<path d="M-19 230H479.5" stroke="black" stroke-width="1.5" stroke-linecap="round" stroke-dasharray="8 8"/>
<path d="M-19 298H479.5" stroke="black" stroke-width="1.5" stroke-linecap="round" stroke-dasharray="8 8"/>
<path d="M-19 327H479.5" stroke="black" stroke-width="1.5" stroke-linecap="round" stroke-dasharray="8 8"/>
<path d="M-19 438H479.5" stroke="black" stroke-width="1.5" stroke-linecap="round" stroke-dasharray="8 8"/>
<path d="M-4 464.247L460.247 0.000400526" stroke="black" stroke-width="1.5" stroke-linecap="round" stroke-dasharray="8 8"/>
<path d="M0 0L464.247 464.247" stroke="black" stroke-width="1.5" stroke-linecap="round" stroke-dasharray="8 8"/>
<path d="M131 -11V470.009" stroke="black" stroke-width="1.5" stroke-linecap="round" stroke-dasharray="8 8"/>
<path d="M160 -11V470.009" stroke="black" stroke-width="1.5" stroke-linecap="round" stroke-dasharray="8 8"/>
<path d="M230 -9V472.009" stroke="black" stroke-width="1.5" stroke-linecap="round" stroke-dasharray="8 8"/>
<path d="M300 -11V470.009" stroke="black" stroke-width="1.5" stroke-linecap="round" stroke-dasharray="8 8"/>
<path d="M328 -11V470.009" stroke="black" stroke-width="1.5" stroke-linecap="round" stroke-dasharray="8 8"/>
<circle cx="230" cy="228" r="209.5" stroke="black" stroke-dasharray="8 8"/>
<circle cx="229.5" cy="227.5" r="99" stroke="black" stroke-dasharray="8 8"/>
<circle cx="230.5" cy="228.5" r="70" stroke="black" stroke-dasharray="8 8"/>
</svg>
