<svg width="24" height="24" viewBox="0 0 24 24" fill="none" xmlns="http://www.w3.org/2000/svg">
<path d="M5.75557 0.888672H18.2445C20.9323 0.888672 23.1111 3.06755 23.1111 5.75532V18.2442C23.1111 20.932 20.9323 23.1109 18.2445 23.1109H5.75557C3.06779 23.1109 0.888916 20.932 0.888916 18.2442V5.75532C0.888916 3.06755 3.06779 0.888672 5.75557 0.888672Z" fill="url(#paint0_linear_699_50433)"/>
<path d="M8.01057 17.0181L8.01266 17.0187L7.25288 18.3347C6.97556 18.8151 6.36128 18.9797 5.88092 18.7023C5.40058 18.425 5.23598 17.8107 5.51331 17.3304L6.07302 16.3609L6.12673 16.2679C6.22266 16.13 6.45939 15.8921 6.93291 15.9368C6.93291 15.9368 8.04721 16.0577 8.12784 16.6369C8.12786 16.6369 8.13886 16.8275 8.01057 17.0181ZM18.7869 13.6569H16.4176C16.2563 13.6461 16.1858 13.5885 16.1582 13.555L16.1564 13.5519L13.6201 9.15902L13.6169 9.16122L13.4647 8.94312C13.2155 8.56192 12.8196 9.53692 12.8196 9.53692C12.347 10.6233 12.8867 11.8586 13.0749 12.2319L16.5976 18.3334C16.8749 18.8137 17.4891 18.9783 17.9695 18.701C18.4499 18.4237 18.6144 17.8094 18.3371 17.329L17.4562 15.8033C17.4392 15.7664 17.4095 15.666 17.5901 15.6656H18.7869C19.3416 15.6656 19.7912 15.2159 19.7912 14.6612C19.7912 14.1065 19.3416 13.6569 18.7869 13.6569ZM14.185 15.0223C14.185 15.0223 14.3115 15.6655 13.8221 15.6655H13.3328V15.6656H5.06354C4.50887 15.6656 4.0592 15.2159 4.0592 14.6612C4.0592 14.1065 4.50887 13.6569 5.06354 13.6569H7.31528C7.67881 13.6358 7.765 13.426 7.765 13.426L7.76698 13.427L10.7063 8.33599L10.7054 8.33582C10.759 8.23747 10.7143 8.14455 10.7066 8.12984L9.73589 6.44857C9.45855 5.9682 9.62314 5.35395 10.1035 5.07662C10.5839 4.79927 11.1981 4.96387 11.4754 5.44423L11.9256 6.224L12.375 5.44561C12.6524 4.96525 13.2666 4.80066 13.747 5.07801C14.2273 5.35536 14.3919 5.96961 14.1146 6.44995L10.0245 13.5341C10.0066 13.5773 10.0011 13.645 10.1342 13.6569H12.579L12.5795 13.6807C12.5795 13.6807 13.9926 13.7027 14.185 15.0223Z" fill="white"/>
<defs>
<linearGradient id="paint0_linear_699_50433" x1="12" y1="0.888672" x2="12" y2="23.1109" gradientUnits="userSpaceOnUse">
<stop stop-color="#17C9FB"/>
<stop offset="1" stop-color="#1A74E8"/>
</linearGradient>
</defs>
</svg>
