<svg width="74" height="21" viewBox="0 0 74 21" fill="none" xmlns="http://www.w3.org/2000/svg">
<path d="M31.9577 16.7475C30.7038 16.7475 29.6212 16.4647 28.7098 15.8989C27.8042 15.3332 27.1047 14.5417 26.6113 13.5246C26.1237 12.5075 25.8799 11.3248 25.8799 9.97666C25.8799 8.6285 26.1237 7.44586 26.6113 6.42872C27.1047 5.41158 27.8042 4.62014 28.7098 4.0544C29.6212 3.48865 30.7038 3.20578 31.9577 3.20578C33.3974 3.20578 34.6048 3.57592 35.58 4.3162C36.5611 5.05649 37.2519 6.05858 37.6524 7.32247L35.2666 8.00859C35.0344 7.22016 34.6425 6.60928 34.0911 6.17594C33.5396 5.73658 32.8285 5.51691 31.9577 5.51691C31.1624 5.51691 30.4978 5.70047 29.9637 6.0676C29.4354 6.43474 29.0378 6.95233 28.7708 7.62039C28.5037 8.28845 28.3702 9.07388 28.3702 9.97666C28.3702 10.8794 28.5037 11.6649 28.7708 12.3329C29.0378 13.001 29.4354 13.5186 29.9637 13.8857C30.4978 14.2528 31.1624 14.4364 31.9577 14.4364C32.8285 14.4364 33.5396 14.2167 34.0911 13.7774C34.6425 13.338 35.0344 12.7271 35.2666 11.9447L37.6524 12.6308C37.2519 13.8947 36.5611 14.8968 35.58 15.6371C34.6048 16.3774 33.3974 16.7475 31.9577 16.7475Z" fill="white"/>
<path fill-rule="evenodd" clip-rule="evenodd" d="M42.182 16.7475C41.5086 16.7475 40.9368 16.6151 40.4666 16.3503C40.0022 16.0795 39.6481 15.7214 39.4043 15.276C39.1663 14.8246 39.0473 14.3281 39.0473 13.7864C39.0473 13.335 39.114 12.9227 39.2475 12.5496C39.3811 12.1764 39.5958 11.8484 39.8919 11.5656C40.1937 11.2767 40.5972 11.0359 41.1022 10.8433C41.4505 10.7109 41.8656 10.5936 42.3474 10.4912C42.8292 10.3889 43.3749 10.2926 43.9844 10.2024C44.3432 10.1457 44.7231 10.0859 45.1241 10.0229C45.079 9.62097 44.9517 9.31364 44.742 9.10096C44.4749 8.83012 44.028 8.6947 43.401 8.6947C43.0527 8.6947 42.6899 8.78198 42.3126 8.95651C41.9353 9.13105 41.6711 9.44101 41.5202 9.88638L39.3781 9.18221C39.6162 8.37572 40.0631 7.7197 40.7191 7.21414C41.3751 6.70858 42.269 6.4558 43.401 6.4558C44.2311 6.4558 44.9684 6.58821 45.6127 6.85303C46.2571 7.11784 46.7447 7.57525 47.0756 8.22526C47.2613 8.58637 47.3716 8.94748 47.4065 9.3086C47.4413 9.66971 47.4587 10.073 47.4587 10.5183V16.4767H45.3863V15.2798C45.0121 15.7369 44.6145 16.0817 44.1934 16.3142C43.6651 16.6031 42.9947 16.7475 42.182 16.7475ZM42.687 14.8156C43.1224 14.8156 43.4881 14.7373 43.7842 14.5809C44.086 14.4184 44.324 14.2348 44.4982 14.0302C44.6781 13.8255 44.8 13.654 44.8639 13.5156C44.9858 13.2508 45.0554 12.9438 45.0729 12.5947C45.087 12.3784 45.0968 12.1844 45.1024 12.0127C44.7123 12.0818 44.3774 12.1434 44.0976 12.1975C43.6622 12.2757 43.311 12.348 43.044 12.4142C42.777 12.4804 42.5419 12.5526 42.3387 12.6308C42.1065 12.7271 41.9178 12.8325 41.7727 12.9468C41.6334 13.0552 41.5289 13.1755 41.4592 13.3079C41.3954 13.4403 41.3635 13.5878 41.3635 13.7503C41.3635 13.973 41.4157 14.1656 41.5202 14.3281C41.6305 14.4846 41.7843 14.6049 41.9817 14.6892C42.1791 14.7734 42.4142 14.8156 42.687 14.8156Z" fill="white"/>
<path fill-rule="evenodd" clip-rule="evenodd" d="M52.0912 16.1369C52.7013 16.544 53.4502 16.7475 54.3378 16.7475C55.2027 16.7475 55.9603 16.5218 56.6104 16.0704C57.2606 15.6191 57.7656 15.0052 58.1256 14.2288C58.4913 13.4524 58.6741 12.5767 58.6741 11.6017C58.6741 10.6086 58.4884 9.72689 58.1168 8.95651C57.7511 8.18012 57.2345 7.56924 56.5669 7.12386C55.8993 6.67849 55.1157 6.4558 54.2159 6.4558C53.3219 6.4558 52.5702 6.6815 51.9606 7.13289C51.9042 7.17467 51.8491 7.21784 51.7952 7.2624V6.72664H49.7054V20.8101H52.0912V16.1369ZM51.7952 11.6017C51.7952 11.0118 51.8649 10.4943 52.0042 10.0489C52.1435 9.60351 52.3641 9.25744 52.6659 9.01068C52.9736 8.76392 53.3742 8.64054 53.8676 8.64054C54.3958 8.64054 54.8283 8.77595 55.165 9.04679C55.5075 9.3116 55.76 9.66971 55.9225 10.1211C56.0851 10.5665 56.1664 11.06 56.1664 11.6017C56.1664 12.1494 56.088 12.6489 55.9312 13.1003C55.7745 13.5457 55.5336 13.9008 55.2085 14.1656C54.8835 14.4304 54.4655 14.5628 53.9546 14.5628C53.4264 14.5628 53.0026 14.4394 52.6834 14.1927C52.3699 13.9459 52.1435 13.5998 52.0042 13.1545C51.8649 12.7091 51.7952 12.1915 51.7952 11.6017Z" fill="white"/>
<path fill-rule="evenodd" clip-rule="evenodd" d="M65.2052 16.7475C64.3176 16.7475 63.5687 16.544 62.9586 16.1369V20.8101H60.5728V6.72664H62.6626V7.2624C62.7164 7.21784 62.7716 7.17467 62.828 7.13289C63.4375 6.6815 64.1893 6.4558 65.0833 6.4558C65.983 6.4558 66.7667 6.67849 67.4343 7.12386C68.1019 7.56924 68.6185 8.18012 68.9842 8.95651C69.3557 9.72689 69.5415 10.6086 69.5415 11.6017C69.5415 12.5767 69.3586 13.4524 68.9929 14.2288C68.633 15.0052 68.128 15.6191 67.4778 16.0704C66.8277 16.5218 66.0701 16.7475 65.2052 16.7475ZM62.8715 10.0489C62.7322 10.4943 62.6626 11.0118 62.6626 11.6017C62.6626 12.1915 62.7322 12.7091 62.8715 13.1545C63.0109 13.5998 63.2373 13.9459 63.5507 14.1927C63.87 14.4394 64.2938 14.5628 64.822 14.5628C65.3329 14.5628 65.7508 14.4304 66.0759 14.1656C66.401 13.9008 66.6419 13.5457 66.7986 13.1003C66.9554 12.6489 67.0337 12.1494 67.0337 11.6017C67.0337 11.06 66.9525 10.5665 66.7899 10.1211C66.6274 9.66971 66.3749 9.3116 66.0324 9.04679C65.6957 8.77595 65.2632 8.64054 64.735 8.64054C64.2415 8.64054 63.841 8.76392 63.5333 9.01068C63.2315 9.25744 63.0109 9.60351 62.8715 10.0489Z" fill="white"/>
<path d="M71.6317 3.0177V5.37246H74.0001V3.0177H71.6317Z" fill="white"/>
<path d="M74.0001 6.72664H71.6317V16.4767H74.0001V6.72664Z" fill="white"/>
<path d="M0 9.5072C0 4.36007 3.97845 0.1875 8.88612 0.1875C13.7938 0.1875 17.7722 4.36007 17.7722 9.5072V20.6908H17.5558C16.6641 16.601 13.1211 13.5457 8.88612 13.5457C4.65118 13.5457 1.10817 16.601 0.216412 20.6908H0V9.5072Z" fill="#8B17FF"/>
</svg>
