<svg width="71" height="20" viewBox="0 0 71 20" fill="none" xmlns="http://www.w3.org/2000/svg">
<path d="M27.3293 15.0544C26.0497 15.0544 24.9449 14.7615 24.0149 14.1757C23.0907 13.5899 22.3769 12.7704 21.8734 11.7171C21.3758 10.6639 21.127 9.43933 21.127 8.04335C21.127 6.64738 21.3758 5.42278 21.8734 4.36956C22.3769 3.31635 23.0907 2.49683 24.0149 1.91102C24.9449 1.32521 26.0497 1.03231 27.3293 1.03231C28.7984 1.03231 30.0306 1.41557 31.0258 2.18212C32.027 2.94866 32.7319 3.98629 33.1406 5.29502L30.7059 6.00548C30.469 5.18908 30.0691 4.55653 29.5063 4.10782C28.9436 3.65288 28.2179 3.42541 27.3293 3.42541C26.5177 3.42541 25.8394 3.61549 25.2944 3.99564C24.7553 4.3758 24.3496 4.91176 24.0771 5.60351C23.8046 6.29526 23.6683 7.10855 23.6683 8.04335C23.6683 8.97816 23.8046 9.79144 24.0771 10.4832C24.3496 11.175 24.7553 11.7109 25.2944 12.0911C25.8394 12.4712 26.5177 12.6613 27.3293 12.6613C28.2179 12.6613 28.9436 12.4338 29.5063 11.9789C30.0691 11.524 30.469 10.8914 30.7059 10.0812L33.1406 10.7917C32.7319 12.1004 32.027 13.1381 31.0258 13.9046C30.0306 14.6711 28.7984 15.0544 27.3293 15.0544Z" fill="black"/>
<path fill-rule="evenodd" clip-rule="evenodd" d="M37.763 15.0544C37.0758 15.0544 36.4923 14.9173 36.0125 14.6431C35.5385 14.3626 35.1772 13.9918 34.9284 13.5307C34.6855 13.0633 34.5641 12.5491 34.5641 11.9882C34.5641 11.5208 34.6322 11.0939 34.7684 10.7076C34.9047 10.3212 35.1239 9.98152 35.426 9.68861C35.734 9.38947 36.1457 9.14019 36.6611 8.94077C37.0166 8.80366 37.4401 8.68214 37.9318 8.57619C38.4235 8.47025 38.9803 8.37054 39.6023 8.27706C39.9685 8.21837 40.3561 8.15644 40.7653 8.09127C40.7194 7.67505 40.5894 7.35682 40.3754 7.13659C40.1029 6.85615 39.6468 6.71593 39.007 6.71593C38.6516 6.71593 38.2813 6.8063 37.8963 6.98702C37.5112 7.16775 37.2417 7.4887 37.0876 7.94987L34.9017 7.22073C35.1446 6.38563 35.6007 5.70634 36.2701 5.18285C36.9395 4.65935 37.8518 4.39761 39.007 4.39761C39.8541 4.39761 40.6064 4.53472 41.264 4.80892C41.9216 5.08313 42.4192 5.55677 42.7568 6.22983C42.9464 6.60375 43.059 6.97767 43.0945 7.3516C43.13 7.72552 43.1478 8.14307 43.1478 8.60424V14.774H41.033V13.5346C40.6511 14.0079 40.2453 14.3649 39.8156 14.6057C39.2765 14.9048 38.5923 15.0544 37.763 15.0544ZM38.2783 13.0539C38.7226 13.0539 39.0958 12.9729 39.398 12.8109C39.706 12.6426 39.9489 12.4525 40.1266 12.2406C40.3103 12.0287 40.4347 11.8511 40.4998 11.7078C40.6242 11.4336 40.6953 11.1158 40.7131 10.7543C40.7275 10.5303 40.7376 10.3294 40.7432 10.1516C40.3452 10.2231 40.0034 10.2869 39.7179 10.343C39.2736 10.424 38.9152 10.4988 38.6427 10.5673C38.3702 10.6359 38.1303 10.7107 37.9229 10.7917C37.686 10.8914 37.4934 11.0005 37.3453 11.1189C37.2032 11.231 37.0965 11.3557 37.0254 11.4928C36.9603 11.6299 36.9277 11.7826 36.9277 11.9508C36.9277 12.1814 36.981 12.3809 37.0876 12.5491C37.2002 12.7112 37.3572 12.8358 37.5586 12.923C37.76 13.0103 37.9999 13.0539 38.2783 13.0539Z" fill="black"/>
<path fill-rule="evenodd" clip-rule="evenodd" d="M47.8752 14.4221C48.4978 14.8436 49.262 15.0544 50.1678 15.0544C51.0504 15.0544 51.8235 14.8207 52.487 14.3533C53.1505 13.8859 53.6659 13.2502 54.0331 12.4463C54.4063 11.6424 54.5929 10.7356 54.5929 9.72601C54.5929 8.69772 54.4034 7.78472 54.0243 6.98702C53.651 6.18309 53.1238 5.55054 52.4426 5.08937C51.7613 4.62819 50.9616 4.39761 50.0434 4.39761C49.1311 4.39761 48.364 4.63131 47.7419 5.09872C47.6844 5.14198 47.6281 5.18668 47.5731 5.23282V4.67805H45.4405V19.261H47.8752V14.4221ZM47.5731 9.72601C47.5731 9.11526 47.6442 8.57931 47.7864 8.11814C47.9285 7.65697 48.1537 7.29862 48.4617 7.04311C48.7757 6.7876 49.1844 6.65984 49.6879 6.65984C50.227 6.65984 50.6684 6.80006 51.0119 7.0805C51.3615 7.35471 51.6191 7.72552 51.785 8.19292C51.9509 8.65409 52.0338 9.16512 52.0338 9.72601C52.0338 10.2931 51.9538 10.8104 51.7939 11.2778C51.634 11.739 51.3881 12.1066 51.0564 12.3809C50.7246 12.6551 50.2981 12.7922 49.7768 12.7922C49.2377 12.7922 48.8053 12.6644 48.4795 12.4089C48.1596 12.1534 47.9285 11.795 47.7864 11.3339C47.6442 10.8727 47.5731 10.3367 47.5731 9.72601Z" fill="black"/>
<path fill-rule="evenodd" clip-rule="evenodd" d="M61.2578 15.0544C60.352 15.0544 59.5878 14.8436 58.9652 14.4221V19.261H56.5305V4.67805H58.6631V5.23282C58.7181 5.18668 58.7744 5.14198 58.8319 5.09872C59.4539 4.63131 60.2211 4.39761 61.1334 4.39761C62.0516 4.39761 62.8513 4.62819 63.5325 5.08937C64.2138 5.55054 64.741 6.18309 65.1142 6.98702C65.4934 7.78472 65.6829 8.69772 65.6829 9.72601C65.6829 10.7356 65.4963 11.6424 65.1231 12.4463C64.7558 13.2502 64.2405 13.8859 63.577 14.3533C62.9135 14.8207 62.1404 15.0544 61.2578 15.0544ZM58.8764 8.11814C58.7342 8.57931 58.6631 9.11526 58.6631 9.72601C58.6631 10.3367 58.7342 10.8727 58.8764 11.3339C59.0185 11.795 59.2496 12.1534 59.5695 12.4089C59.8953 12.6644 60.3277 12.7922 60.8668 12.7922C61.3881 12.7922 61.8146 12.6551 62.1464 12.3809C62.4781 12.1066 62.7239 11.739 62.8839 11.2778C63.0438 10.8104 63.1238 10.2931 63.1238 9.72601C63.1238 9.16512 63.0409 8.65409 62.875 8.19292C62.7091 7.72552 62.4514 7.35471 62.1019 7.0805C61.7583 6.80006 61.317 6.65984 60.7779 6.65984C60.2744 6.65984 59.8656 6.7876 59.5517 7.04311C59.2436 7.29862 59.0185 7.65697 58.8764 8.11814Z" fill="black"/>
<path d="M67.816 0.837555V3.27584H70.2329V0.837555H67.816Z" fill="black"/>
<path d="M70.2329 4.67805H67.816V14.774H70.2329V4.67805Z" fill="black"/>
<path d="M0 7.32752C0 3.28064 3.12802 0 6.98662 0C10.8452 0 13.9732 3.28064 13.9732 7.32752V16.1205H13.8031C13.102 12.9049 10.3163 10.5028 6.98662 10.5028C3.65694 10.5028 0.871289 12.9049 0.170152 16.1205H0V7.32752Z" fill="#8B17FF"/>
</svg>
