<svg width="20" height="20" viewBox="0 0 20 20" fill="none" xmlns="http://www.w3.org/2000/svg">
<path d="M14.55 13.0564C16.9193 11.7555 18.7155 10.7642 18.8703 10.6872C19.3656 10.4237 19.877 9.72667 18.8703 9.18519C18.5453 9.01497 16.7953 8.05447 14.55 6.81592L11.4374 9.95929L14.55 13.0564Z" fill="#FFD900"/>
<path d="M11.4374 9.95947L1.52667 19.948C1.75929 19.9788 2.02194 19.9172 2.33158 19.747C2.98166 19.3911 9.87304 15.6277 14.55 13.0574L11.4374 9.95947Z" fill="#F43249"/>
<path d="M11.4374 9.95939L14.55 6.83143C14.55 6.83143 3.02867 0.543922 2.3316 0.172664C2.06895 0.0170744 1.77472 -0.0291402 1.51129 0.0170744L11.4374 9.95939Z" fill="#00EE76"/>
<path d="M11.4374 9.95941L1.51129 0.0170898C1.10845 0.110289 0.768005 0.466142 0.768005 1.19402C0.768005 2.35555 0.768005 17.8105 0.768005 18.771C0.768005 19.4373 1.03143 19.9171 1.5267 19.9633L11.4374 9.95941Z" fill="#00D3FF"/>
</svg>
